<!-- This is the favicon. It needs to be an image file named "icon" -->
<svg xmlns="http://www.w3.org/2000/svg" version="1.1" viewBox="-5.0 -10.0 110.0 110.0">
    <g>
        <path d="m72.605 47.23c2.2578-2.4922 3.6445-5.7891 3.6445-9.4219 0-7.2344-5.4648-13.188-12.492-13.969 0.19531-0.9375 0.30469-1.9102 0.30469-2.9062 0-7.7656-6.2969-14.062-14.062-14.062s-14.062 6.2969-14.062 14.062c0 0.99609 0.10547 1.9688 0.30469 2.9062-7.0273 0.78125-12.492 6.7344-12.492 13.969 0 3.6289 1.3867 6.9258 3.6445 9.4219-4.3477 1.8633-7.3945 6.1758-7.3945 11.203 0 6.7305 5.457 12.188 12.188 12.188h11.176l0.050781-1.2891-7.6172-8.5703c-1.9766-2.2227-1.875-5.6094 0.22656-7.7148l0.15234-0.15234c1.0625-1.0625 2.4766-1.6484 3.9766-1.6484 1.3789 0 2.707 0.50391 3.7344 1.4219l0.16016 0.14062 0.26172-6.7773c0.11719-3.0312 2.5859-5.4102 5.6211-5.4102 3.1758 0 5.6445 2.375 5.7617 5.4102l0.050782 1.3398 0.36719-0.32812c1.0312-0.91406 2.3555-1.4219 3.7344-1.4219 1.5039 0 2.9141 0.58594 3.9766 1.6484l0.15234 0.15234c2.1016 2.1016 2.2031 5.4922 0.22656 7.7148l-7.8242 8.8047 0.25781 6.6836h11.176c6.7305 0 12.188-5.457 12.188-12.188 0-5.0273-3.0469-9.3438-7.3945-11.203z"/>
        <path d="m61.324 50.074-0.15234-0.15234c-0.70312-0.70312-1.8281-0.73438-2.5703-0.074219l-6.3008 5.6016-0.35547-9.2695c-0.039062-1.0078-0.86719-1.8047-1.875-1.8047h-0.14062c-1.0078 0-1.8359 0.79688-1.875 1.8047l-0.56641 14.711-6.0938-5.4141c-0.74219-0.66016-1.8672-0.625-2.5703 0.074219l-0.15234 0.15234c-0.70312 0.70312-0.73438 1.8281-0.074219 2.5703l8.6172 9.6992-0.89453 23.207c-0.039062 1.0625 0.80859 1.9453 1.875 1.9453h3.6016c1.0625 0 1.9141-0.88281 1.875-1.9453l-1.1016-28.598 8.8242-9.9336c0.66016-0.74219 0.625-1.8672-0.074219-2.5703z"/>
    </g>
</svg>